<svg width="142" height="142" xmlns="http://www.w3.org/2000/svg" xml:space="preserve" version="1.1">

 <g>
  <title>Layer 1</title>
  <rect stroke="null" id="svg_1" fill="#333333" height="142.72999" width="134.73" class="st0" y="0.00001" x="8"/>
  <g id="svg_2">
   <g id="svg_3">
    <g id="svg_4">
     <g id="svg_5">
      <g id="svg_6">
       <g id="svg_7">
        <g id="svg_8">
         <g id="svg_9">
          <path id="svg_10" fill="#FFFFFF" d="m92.45,28.13c0,0 8.81,13.81 20.65,29.09c11.84,15.28 14.73,24.78 16.93,32.35c2.2,7.57 5.37,19.82 5.37,19.82s1.45,2.75 -2.48,2.69c-3.92,-0.07 -27.33,4.96 -29.67,7.3c-2.34,2.34 -34,9.5 -63.67,-11.01c0,0 -9.09,-3.42 -9.73,0.8c-0.64,4.22 -7.89,6.98 -7.89,6.98l0,-40.83c0,0 11.01,-5.06 20.38,-0.93c9.36,4.13 13.03,8.35 13.03,8.35s11.57,-8.9 24.6,-4.04c13.03,4.87 21.75,17.81 25.79,18.91c0,0 -4.13,-19 -8.17,-24.6c-4.04,-5.6 -5.05,-13.4 -7.16,-18.63c-2.11,-5.23 -8.44,-21.02 -10.1,-18.26c-1.65,2.75 -9.82,4.68 -18.72,2.66c-8.9,-2.02 -11.56,-3.76 -11.29,-4.77c0.28,-1.01 2.41,-1.9 11.36,0.57c8.95,2.48 8.26,-2.96 8.26,-2.96s-0.48,-1.58 -1.58,-0.21c-1.1,1.38 -5.37,4.34 -8.74,1.1c0,0 -1.51,-1.31 1.86,-10.74l-4.34,10.32c0,0 -5.02,1.1 -4.75,-2.62c0.27,-3.72 4.96,-10.74 4.96,-10.74l-5.61,9.82c0,0 -0.66,4.68 -3.13,0.71c-2.48,-3.97 5.15,-10.14 6.66,-13.23c1.5,-3.09 3.26,-3.84 3.26,-3.84s1.17,-0.41 8.95,3.24c7.78,3.65 15.42,6.4 17.55,7.09c2.12,0.7 5.08,3.29 7.42,5.61z" class="st1"/>
         </g>
        </g>
       </g>
      </g>
     </g>
    </g>
   </g>
  </g>
  <path id="svg_11" fill="#A7A9AC" d="m30.62,70.87l-12.57,0l0,46.17l20.58,-0.78c0,0 6.7,-44.87 -8.01,-45.39z" class="st2"/>
  <rect stroke="null" id="svg_12" fill="#aaffd4" height="145.73" width="29.88322" class="st3" y="0" x="0"/>
 </g>
</svg>