<svg xmlns="http://www.w3.org/2000/svg" viewBox="0 0 584.59 142.11"><defs><style>.cls-1{fill:#231f20;}.cls-2{fill:#fff;}.cls-3{fill:#a7a9ac;}.cls-4{fill:#d71a21;}.cls-5{font-size:72px;}.cls-5,.cls-6{font-family:PoorRichard-Regular, Poor Richard;}.cls-6{font-size:24px;letter-spacing:0.11em;}</style></defs><g id="Layer_2" data-name="Layer 2"><g id="Layer_1-2" data-name="Layer 1"><rect class="cls-1" width="141.73" height="141.73"/><path class="cls-2" d="M92.45,28.12s8.81,13.82,20.65,29.1S127.83,82,130,89.57s5.37,19.83,5.37,19.83,1.45,2.75-2.48,2.68-27.33,5-29.67,7.3-34,9.5-63.67-11c0,0-9.09-3.41-9.73.81s-7.89,7-7.89,7V75.31s11-5.06,20.37-.93,13,8.35,13,8.35,11.56-8.9,24.6-4S101.72,96.5,105.76,97.6c0,0-4.13-19-8.17-24.6s-5-13.4-7.16-18.63-8.45-21-10.1-18.26-9.82,4.68-18.72,2.66S50,35,50.32,34s2.41-1.91,11.36.57,8.26-3,8.26-3-.48-1.58-1.59-.21S63,35.74,59.61,32.51c0,0-1.51-1.31,1.86-10.74L57.13,32.09s-5,1.1-4.74-2.61,5-10.74,5-10.74l-5.61,9.82s-.66,4.68-3.13.71S53.75,19.13,55.25,16s3.26-3.84,3.26-3.84,1.17-.41,8.95,3.23A175.63,175.63,0,0,0,85,22.52C87.15,23.21,90.11,25.81,92.45,28.12Z"/><path class="cls-3" d="M30.61,70.87H18.05V117l20.58-.78S45.33,71.39,30.61,70.87Z"/><rect class="cls-4" width="18.98" height="141.73"/><text class="cls-5" transform="translate(152.38 68.27)">Robust Delights</text><text class="cls-6" transform="translate(155.22 104.09)">A subsidiary of ARK Mundial Pvt Ltd</text><text class="cls-6" transform="translate(155.47 136.93)">robustdelights.com</text></g></g></svg>